# xmcd CD database file
#
# Track frame offsets:
#	150
#	25200
#	40350
#	43800
#
# Disc length: 846 seconds
#
# Revision: 1
# Processed by: cddbd v1.5.1PL2 Copyright (c) Steve Scherf et al.
# Submitted via: freeDBTagger 0.8.2.1
#
DISCID=2f034c04
DTITLE=Eminem - The Singles Boxset [CD6]
DYEAR=2003
DGENRE=misc
TTITLE0=Stan (Radio Edit)
TTITLE1=Guilty Coscience (Radio Versio
TTITLE2=Hazardous Youth (A Cappella Ve
TTITLE3=Get You Mad (feat. Sway, King
EXTD=
EXTT0=
EXTT1=
EXTT2=
EXTT3=
PLAYORDER=
